<svg viewBox="0 0 246 130" xmlns="http://www.w3.org/2000/svg" fill-rule="evenodd" clip-rule="evenodd"
     stroke-linejoin="round" stroke-miterlimit="1.414">
    <clipPath id="a">
        <path d="M0 0h245.808v130H0z"/>
    </clipPath>
    <g clip-path="url(#a)" fill-rule="nonzero">
        <path fill="#fff" d="M0 0h244.558v74.613H0z"/>
        <path d="M139.945 74.613l.372-.864c.629-1.564 1.279-2.757 2.222-4.068.996-1.387 3.191-3.431 4.103-3.821 1.122-.481 2.515-.65 4.242-.515 1.481.118 6.028.788 7.864 1.163 1.398.282 3.445.309 4.407.056 1.855-.486 2.953-1.428 3.475-2.976.401-1.189.397-2.274-.01-2.992-.547-.967-.454-1.228.875-2.365.655-.575 1.192-1.098 1.194-1.163 0-.392-.916-1.921-1.145-1.934-.148 0-.431-.13-.633-.274l-.377-.274.781-.366c1.077-.497 1.872-1.268 1.872-1.816 0-.235-.229-.81-.512-1.281-.539-.901-.673-1.764-.377-2.273.189-.34.539-.483 2.209-.915 1.4-.365 1.912-.744 2.114-1.554.161-.693.08-1.137-.377-1.973-.377-.68-2.828-4.064-3.528-4.887-.957-1.11-2.128-3.031-2.465-4.063-.336-1.019-.35-1.084-.094-2.391.525-2.783.215-5.082-1.279-9.564-1.118-3.345-1.414-4.155-1.751-4.782-.633-1.123-.552-1.385.741-2.338.619-.458 1.185-.941 1.266-1.085.39-.653-.054-1.92-.782-2.273-.471-.222-.727-.066-1.198.718-.364.601-.512.706-.889.706-.633 0-.74-.235-.336-.719.457-.575.431-.666-.31-.757-.552-.066-.835-.262-2.034-1.359-1.589-1.464-2.666-2.143-4.793-3.031-.983-.405-1.32-.601-.97-.549.31.039 1.387.117 2.41.17 2.95.13 3.663-.222 4.35-2.143.458-1.307.687-1.908-.391-2.822L156.342 0h88.213v74.613h-104.61z"
              fill="#e2011c"/>
        <path d="M64.722 74.613c-.639-.06-1.194-.086-1.233-.121-.068-.06.655-.48 3.967-2.3 1.064-.585 1.5-.898 1.352-.97-.121-.058-1.047-.149-2.061-.204-1.505-.079-1.941-.058-2.383.127-.3.124-1.492.449-2.65.723-2.882.68-3.838 1.148-4.767 2.3l-.35.444H0V0h112.315l-2.176 1.28c-1.198.539-2.591 1.285-3.094 1.66-1.708 1.267-4.009 4.157-4.583 5.755-.215.588-.404.806-1.05 1.206-.997.609-2.182 1.769-3.165 3.091-1.333 1.795-3.878 5.84-4.376 6.961-.781 1.741-.714 3.067.431 8.268.498 2.29 1.037 4.617 1.198 5.17.162.553.337 1.49.391 2.081.094 1.059.175 1.287.862 2.585.188.355.336.757.336.896 0 .138.135.331.31.431a.67.67 0 0 1 .31.54c0 .248.363.721 1.158 1.509 1.818 1.803 3.137 3.493 3.137 4.028 0 .439-.713.552-1.871.296-1.347-.3-2.451-.946-4.148-2.435-.727-.634-1.306-1.058-1.306-.946 0 .112.485.702 1.091 1.307 1.198 1.209 1.387 1.539 1.131 1.976-.229.385-.781.497-1.535.31-.876-.216-1.374.085-1.239.728.081.405.067.444-.189.366-.485-.17-1.562-.366-2.518-.458-.889-.078-.956-.117-1.481-.784-.404-.509-.727-.744-1.145-.849-1.575-.392-5.507-1.019-8.133-1.28-4.633-.458-5.75-.497-7.972-.248-1.71.182-2.168.3-3.098.718-1.656.758-4.524 3.136-4.524 3.75 0 .287.633.196 1.346-.209 2.182-1.215 9.683-2.94 13.359-3.071 1.818-.065 1.724.014-.471.379-.606.105-2.034.432-3.178.745-1.145.314-3.125.784-4.39 1.058-1.266.262-2.707.614-3.178.771l-.876.288 1.347.013c6.895.065 14.732 2.038 17.937 4.507 1.373 1.059 1.872 1.189 3.891.993 2.774-.261 6.356-1.45 7.932-2.639.687-.51 1.239-.719 1.239-.444 0 .47-.902 2.992-1.293 3.606-.431.705-.458.797-.229.954.135.091.216.209.162.248-.054.052.054.131.242.183.525.157.391.3-.444.483-.808.196-1.455.523-1.455.745 0 .078.108.144.243.144.404 0 .108.261-.431.365-.364.079-.431.131-.269.223.161.091.161.13.013.13-.108 0-.202.144-.202.327 0 .222-.161.379-.485.509-.794.327-.579.497.512.405.552-.052.889-.052.754 0-.135.04-1.023.405-1.979.81-.97.392-2.222.876-2.788 1.059-.646.209-1.05.418-1.091.575-.053.248.243.235.997-.026.135-.053.256-.027.256.039 0 .065-1.657.927-3.677 1.92-2.033.993-3.918 2.012-4.214 2.261-.297.261-.66.47-.835.47-.162 0-.377.17-.485.366-.31.614-.256.692.485.575 1.09-.17 1.602-.157 1.67.039.04.104-.068.183-.243.183a.747.747 0 0 0-.498.209c-.108.117-.377.235-.606.248-.283.039-.539.209-.754.51-.175.248-.458.496-.633.535-.175.039.071.053.552.013 7.15-.483 8.484-.718 11.369-2.038 2.459-1.123 5.01-2.809 6.828-4.481.525-.484 1.01-.876 1.077-.876.246 0 .112.797-.252 1.516-.633 1.228-1.952 2.352-4.673 3.985-1.373.823-2.854 1.607-3.293 1.725-1.366.391-3.569.81-5.885 1.11-7.532.98-10.415 1.725-13.27 3.436-.482.275-.983.497-1.117.471-.135-.013-.498.156-.795.392-.848.666-.229.548 1.549-.275 1.831-.849 2.68-.98 1.239-.196-1.764.967-3.097 1.581-4.417 1.581h-7.023l.085-.148zm-9.356-8.322c.285-.109 1.231-.588 2.101-1.064.871-.475 1.904-.998 2.298-1.159l2.465-1.006c2.015-.82 4.975-1.594 5.144-1.345.06.086.502.183.983.213.669.041.786.081.511.169-.196.062-.358.17-.358.241 0 .259 1.488.183 2.114-.111.247-.118.802-.248 1.234-.301.538-.065.786-.156.786-.3 0-.17.138-.196.622-.118.67.105 2.106-.143 5.979-1.019 2.62-.601 4.606-1.202 6.35-1.92l1.261-.523-1.261-.732c-3.077-1.777-6.168-2.874-12.951-4.586-1.181-.3-2.218-.614-2.305-.692-.105-.092-.054-.105.159-.039.677.222 1.193.261 1.193.091 0-.209-.512-.379-1.519-.509-.92-.118-1.514-.366-.875-.366.989 0-.711-.575-2.616-.863-1.409-.222-1.49-.274-.902-.535.512-.222 1.064-1.072.92-1.411-.121-.301-.269-.262-1.037.196-1.468.888-2.814 2.351-3.568 3.867-.431.862-.283.941 1.939 1.032 1.831.066 1.858.079 1.387.301a4.987 4.987 0 0 1-1.172.326c-1.293.17-2.006.732-1.36 1.059.189.091.121.169-.35.379-.525.222-.552.274-.31.391.162.079.62.118 1.024.092.565-.039.821.013 1.09.222l.351.274-.701.392c-.39.222-.821.614-.969.863-.148.248-.674.849-1.185 1.332-.499.484-.916.98-.916 1.111 0 .118-.727.758-1.629 1.398-2.411 1.738-3.461 2.704-3.461 3.162 0 .248-.135.457-.377.601-.754.444-1.145.953-.727.953.094 0 .404-.091.686-.195l-.048.129zm18.601-1.678c.595-.072 1.286-.239 1.532-.371l.45-.24-.768-.345-.767-.345-.765.28c-.422.154-1.005.361-1.296.461-1.174.401-1.326.94-.226.792a131.98 131.98 0 0 1 1.84-.223v-.009zm-26.923-6.53c3.541-3.345 6.043-5.33 9.217-7.316 1.078-.675 1.84-1.065 1.878-.963.102.274.565.196 1.317-.235.864-.497 1.296-1.006 2.375-2.757 1.118-1.829 1.543-2.287 3.158-3.41.767-.523 1.872-1.32 2.478-1.751.875-.627 1.077-.732 1.01-.483-.054.182-.014.313.107.313.364 0 2.074-.666 2.128-.823.094-.261-1.63-.523-2.909-.444-.983.052-1.319.157-2.545.744-2.855 1.398-4.928 2.901-8.874 6.468-2.841 2.561-5.077 4.285-6.208 4.769-.364.156-.646.496-1.091 1.306-.862 1.594-2.424 3.881-3.891 5.736-1.387 1.751-1.684 2.352-.606 1.228a139.07 139.07 0 0 1 2.504-2.43l-.048.048zm35.459 15.71c4.255-.8 4.726-.86 7.712-.977 3.353-.134 3.781-.212 5.798-1.068.647-.274.9-.324.99-.196.156.226 1.252-.313 3.39-1.666.875-.552 2.11-1.26 2.747-1.571.96-.471 1.252-.549 1.715-.471.493.083.64.026 1.269-.47 1.745-1.389 3.234-2.03 4.722-2.034.445 0 .597.057.597.228 0 .147.087.202.238.149.445-.156.243.013-.897.784-1.319.876-1.198 1.15.148.301 1.293-.81 1.307-.81 1.307-.484 0 .183-.499.654-1.401 1.333-2.06 1.542-3.514 2.822-5.723 5.03l-1.979 1.921H77.969l4.531-.823.003.014zm.04-29.23c.154-.036.404-.036.556 0 .154.037.027.066-.277.066-.307 0-.431-.029-.279-.066z"
              fill="#003189"/>
        <path d="M156.719 39.105c-.695-.097-.337-.33.505-.33.843 0 1.287-.292 1.287-.846 0-.262-.054-.303-.323-.226-.229.065-.391.01-.552-.187-.135-.183-.485-.314-.997-.375-.902-.109-2.37-.899-2.114-1.137.094-.081.566-.178 1.037-.213.835-.063.889-.091 1.05-.551.135-.344.31-.51.606-.575.243-.05.606-.239.822-.422.229-.183.942-.653 1.589-1.032 1.104-.654 1.791-1.346 1.548-1.568-.256-.235-2.639-.484-3.77-.405-1.307.091-3.555.523-4.485.849-.956.327-.686.039.647-.666 1.791-.967 5.238-1.855 7.137-1.855.741 0 3.218.522 3.515.744.579.431-.054 1.947-1.118 2.705l-.445.313.728.706-.377.274c-.202.144-.485.275-.62.275s-.485.196-.767.444c-.431.379-.485.496-.364.797.094.222.094.444-.027.64-.108.183-.135.588-.067 1.058.134.954-.054 1.294-.835 1.49-.566.143-2.666.17-3.582.039l-.028.054z"
              fill="#7f7f7f"/>
    </g>
</svg>
